<svg xmlns="http://www.w3.org/2000/svg" width="155" height="40" fill="none" viewBox="0 0 155 40">
    <path fill="#fff" d="M3.892 22.377c3.066-4.414 4.87-7.257 6.184-9.358C5.023 13.466.18 19.753.18 19.753l3.335 3.336c.097-.247.22-.486.377-.712zM16.915 36.489l3.333 3.333s6.287-4.843 6.735-9.897c-2.101 1.315-4.943 3.118-9.358 6.184a3.472 3.472 0 0 1-.71.38zM11.847 34.765c-.573.232-1.135.477-1.721.673a26.655 26.655 0 0 1-4.814 1.103c-.686.095-1.377.175-2.07.227l.02-.256a31.04 31.04 0 0 1 .806-4.946c.197-.783.45-1.544.72-2.304.168-.473.377-.925.589-1.377l-.367-.367a9.1 9.1 0 0 0-2.127 2.024c-.89 1.16-1.559 2.473-2.026 3.858a16.056 16.056 0 0 0-.847 4.63c-.007.22-.022.446.012.665a1.545 1.545 0 0 0 1.051 1.23c.226.073.453.074.688.072 1.425-.012 2.872-.26 4.236-.664 2.494-.742 5.013-2.136 6.489-4.34l-.357-.356c-.094.044-.188.087-.282.128zM39.595.407A1.383 1.383 0 0 0 38.59.003c-4.453.087-15.438.92-21.272 6.754-2.648 2.648-3.509 4.027-5.395 7.048-1.359 2.175-3.22 5.154-6.619 10.047a1.383 1.383 0 0 0 .158 1.768l8.92 8.919a1.382 1.382 0 0 0 1.767.158c4.895-3.4 7.873-5.26 10.047-6.618 3.02-1.887 4.4-2.748 7.049-5.396C39.089 16.838 39.915 5.86 40 1.412a1.383 1.383 0 0 0-.405-1.005zm-10.328 16.83a4.598 4.598 0 1 1-6.502-6.504 4.598 4.598 0 0 1 6.502 6.503zM58.008 17.192a9.443 9.443 0 0 1-2.576-.352c-.821-.245-1.483-.56-1.984-.944l.88-1.952c.48.352 1.05.635 1.712.848.661.213 1.323.32 1.984.32.736 0 1.28-.107 1.632-.32.352-.224.528-.517.528-.88a.803.803 0 0 0-.32-.656 2.194 2.194 0 0 0-.8-.432 15.04 15.04 0 0 0-1.312-.352c-.853-.203-1.552-.405-2.096-.608a3.467 3.467 0 0 1-1.408-.976c-.384-.448-.576-1.045-.576-1.792 0-.65.176-1.237.528-1.76.352-.533.88-.955 1.584-1.264.715-.31 1.584-.464 2.608-.464.715 0 1.413.085 2.096.256.683.17 1.28.416 1.792.736l-.8 1.968c-1.035-.587-2.07-.88-3.104-.88-.725 0-1.264.117-1.616.352-.341.235-.512.544-.512.928s.197.672.592.864c.405.181 1.019.363 1.84.544.853.203 1.552.405 2.096.608a3.41 3.41 0 0 1 1.392.96c.395.437.592 1.03.592 1.776 0 .64-.181 1.227-.544 1.76-.352.523-.885.939-1.6 1.248-.715.31-1.584.464-2.608.464zM72.579 5.8c.992 0 1.85.165 2.576.496.736.33 1.302.8 1.696 1.408.395.608.592 1.328.592 2.16 0 .821-.197 1.541-.592 2.16-.394.608-.96 1.077-1.696 1.408-.725.32-1.584.48-2.576.48h-2.256V17h-2.592V5.8h4.848zm-.144 6c.779 0 1.37-.165 1.776-.496.406-.341.608-.821.608-1.44 0-.63-.203-1.11-.608-1.44-.405-.341-.997-.512-1.776-.512h-2.112V11.8h2.112zm16.872 2.8h-5.2l-.992 2.4H80.46l4.992-11.2h2.56L93.02 17H90.3l-.992-2.4zm-.816-1.968l-1.776-4.288-1.776 4.288h3.552zm14.094 4.56c-1.141 0-2.176-.245-3.104-.736a5.702 5.702 0 0 1-2.176-2.064c-.523-.885-.784-1.883-.784-2.992 0-1.11.261-2.101.784-2.976A5.548 5.548 0 0 1 99.48 6.36c.928-.501 1.968-.752 3.12-.752.971 0 1.845.17 2.624.512a5.258 5.258 0 0 1 1.984 1.472l-1.664 1.536c-.757-.875-1.696-1.312-2.816-1.312-.693 0-1.312.155-1.856.464-.544.299-.97.72-1.28 1.264-.299.544-.448 1.163-.448 1.856 0 .693.15 1.312.448 1.856.31.544.736.97 1.28 1.28.544.299 1.163.448 1.856.448 1.12 0 2.059-.443 2.816-1.328l1.664 1.536a5.186 5.186 0 0 1-1.984 1.488c-.789.341-1.669.512-2.64.512zm18.246-2.272V17h-8.672V5.8h8.464v2.08h-5.888v2.432h5.2v2.016h-5.2v2.592h6.096zM59.752 37.192c-1.163 0-2.213-.25-3.152-.752a5.672 5.672 0 0 1-2.192-2.064c-.523-.885-.784-1.877-.784-2.976s.261-2.085.784-2.96a5.635 5.635 0 0 1 2.192-2.08c.939-.501 1.99-.752 3.152-.752 1.163 0 2.208.25 3.136.752a5.635 5.635 0 0 1 2.192 2.08c.533.875.8 1.861.8 2.96s-.267 2.09-.8 2.976a5.672 5.672 0 0 1-2.192 2.064c-.928.501-1.973.752-3.136.752zm0-2.208c.661 0 1.259-.15 1.792-.448.533-.31.95-.736 1.248-1.28.31-.544.464-1.163.464-1.856 0-.693-.155-1.312-.464-1.856a3.163 3.163 0 0 0-1.248-1.264 3.506 3.506 0 0 0-1.792-.464c-.661 0-1.259.155-1.792.464-.533.299-.955.72-1.264 1.264-.299.544-.448 1.163-.448 1.856 0 .693.15 1.312.448 1.856.31.544.73.97 1.264 1.28.533.299 1.13.448 1.792.448zM71.028 25.8h5.088c1.216 0 2.288.235 3.216.704.939.459 1.664 1.11 2.176 1.952.523.843.784 1.824.784 2.944 0 1.12-.261 2.101-.784 2.944-.512.843-1.237 1.499-2.176 1.968-.928.459-2 .688-3.216.688h-5.088V25.8zm4.96 9.072c1.12 0 2.01-.31 2.672-.928.672-.63 1.008-1.477 1.008-2.544s-.336-1.91-1.008-2.528c-.661-.63-1.552-.944-2.672-.944H73.62v6.944h2.368zM87.447 25.8h5.088c1.216 0 2.288.235 3.216.704.938.459 1.664 1.11 2.176 1.952.522.843.784 1.824.784 2.944 0 1.12-.262 2.101-.784 2.944-.512.843-1.238 1.499-2.176 1.968-.928.459-2 .688-3.216.688h-5.088V25.8zm4.96 9.072c1.12 0 2.01-.31 2.672-.928.672-.63 1.008-1.477 1.008-2.544s-.336-1.91-1.008-2.528c-.662-.63-1.552-.944-2.672-.944h-2.368v6.944h2.368zm16.35-1.84V37h-2.592v-4l-4.336-7.2h2.752l2.992 4.976 2.992-4.976h2.544l-4.352 7.232zm12.082 4.16a9.444 9.444 0 0 1-2.576-.352c-.821-.245-1.482-.56-1.984-.944l.88-1.952c.48.352 1.051.635 1.712.848.662.213 1.323.32 1.984.32.736 0 1.28-.107 1.632-.32.352-.224.528-.517.528-.88a.801.801 0 0 0-.32-.656 2.186 2.186 0 0 0-.8-.432 15.01 15.01 0 0 0-1.312-.352c-.853-.203-1.552-.405-2.096-.608a3.469 3.469 0 0 1-1.408-.976c-.384-.448-.576-1.045-.576-1.792 0-.65.176-1.237.528-1.76.352-.533.88-.955 1.584-1.264.715-.31 1.584-.464 2.608-.464.715 0 1.414.085 2.096.256.683.17 1.28.416 1.792.736l-.8 1.968c-1.034-.587-2.069-.88-3.104-.88-.725 0-1.264.117-1.616.352-.341.235-.512.544-.512.928s.198.672.592.864c.406.181 1.019.363 1.84.544.854.203 1.552.405 2.096.608a3.41 3.41 0 0 1 1.392.96c.395.437.592 1.03.592 1.776a3.06 3.06 0 0 1-.544 1.76c-.352.523-.885.939-1.6 1.248-.714.31-1.584.464-2.608.464zm18.395-2.272V37h-8.672V25.8h8.464v2.08h-5.888v2.432h5.2v2.016h-5.2v2.592h6.096zm10.529-1.888V37h-2.592v-4l-4.336-7.2h2.752l2.992 4.976 2.992-4.976h2.544l-4.352 7.232z"/>
</svg>
